<?xml version="1.0" encoding="utf-8"?>
<!-- Generator: Adobe Illustrator 16.0.2, SVG Export Plug-In . SVG Version: 6.00 Build 0)  -->
<!DOCTYPE svg PUBLIC "-//W3C//DTD SVG 1.1//EN" "http://www.w3.org/Graphics/SVG/1.1/DTD/svg11.dtd">
<svg version="1.1" id="Layer_1" xmlns="http://www.w3.org/2000/svg" xmlns:xlink="http://www.w3.org/1999/xlink" x="0px" y="0px"
	 width="595.279px" height="841.891px" viewBox="0 0 595.279 841.891" enable-background="new 0 0 595.279 841.891"
	 xml:space="preserve">
<g>
	<path fill="#FFFFFF" d="M185.43,450.806c30.509,0,56.552-24.556,83.34-53.575c-26.788-29.021-52.087-53.575-83.34-53.575
		c-29.764,0-53.575,23.811-53.575,53.575C131.855,426.994,155.666,450.806,185.43,450.806z"/>
	<path fill="#FFFFFF" d="M399.731,450.806c29.765,0,53.575-23.812,53.575-53.575c0-29.765-23.811-53.575-53.575-53.575
		c-30.508,0-56.552,24.555-83.339,53.575C343.179,426.25,369.223,450.806,399.731,450.806z"/>
	<path fill="#FFFFFF" d="M292.58,671.06c151.053,0,273.829-122.777,273.829-273.829c0-151.053-122.776-273.829-273.829-273.829
		c-151.052,0-273.829,122.776-273.829,273.829C18.751,548.282,141.529,671.06,292.58,671.06z M185.43,307.938
		c44.646,0,76.643,29.765,107.15,62.505c30.509-32.74,63.249-62.505,107.15-62.505c49.111,0,89.292,40.182,89.292,89.293
		c0,49.11-40.181,89.292-89.292,89.292c-44.646,0-76.642-29.765-107.15-62.505c-30.508,32.74-63.248,62.505-107.15,62.505
		c-49.11,0-89.292-40.182-89.292-89.292C96.138,348.119,136.32,307.938,185.43,307.938z"/>
</g>
</svg>
